<svg xmlns="http://www.w3.org/2000/svg" viewBox="0 0 352.9 142.72"><defs><style>.cls-1{fill:#fff;}</style></defs><g id="Layer_2" data-name="Layer 2"><g id="Layer_1-2" data-name="Layer 1"><rect class="cls-1" x="124.88" y="35.68" width="41.63" height="107.04"/><path class="cls-1" d="M231.92,83.25v59.47H190.3V83.25a11.9,11.9,0,0,0-11.9-11.89H166.51l17.84-35.68h6a41.63,41.63,0,0,1,41.62,41.63Z"/><path class="cls-1" d="M113,0V142.72H71.36V71.36H59.47a17.84,17.84,0,1,0,0,35.68H71.36L53.52,142.72a53.52,53.52,0,0,1,0-107H71.36V0Z"/><path class="cls-1" d="M352.9,35.68v107H311.27V71.36H299.38a17.84,17.84,0,1,0,0,35.68h11.89l-17.84,35.68a53.52,53.52,0,0,1,0-107Z"/></g></g></svg>